<svg id="Layer_2" data-name="Layer 2" xmlns="http://www.w3.org/2000/svg" xmlns:xlink="http://www.w3.org/1999/xlink" width="118.074" height="38.041" viewBox="0 0 118.074 38.041">
  <defs>
    <linearGradient id="linear-gradient" x1="0.5" y1="-0.038" x2="0.5" y2="1.038" gradientUnits="objectBoundingBox">
      <stop offset="0" stop-color="#2bb3f4"/>
      <stop offset="1" stop-color="#3f64fa"/>
    </linearGradient>
  </defs>
  <g id="Layer_1" data-name="Layer 1">
    <path id="Path_414305" data-name="Path 414305" d="M10.244,11.4l2.532-6.576A7.53,7.53,0,0,1,19.8,0H40.93a3.657,3.657,0,0,1,3.389,4.987L41.787,11.4Zm-.779,2.028L5.094,24.8H30.55a9.957,9.957,0,0,0,8.4-6.253l2.022-5.114ZM4.315,26.823,0,38.041H9.265a5.308,5.308,0,0,0,4.95-3.395l3.024-7.823Z" fill="url(#linear-gradient)"/>
    <path id="Path_414306" data-name="Path 414306" d="M216.111,28.13a7.22,7.22,0,0,1,5.063,1.592,5.933,5.933,0,0,1,1.882,4.689,6.206,6.206,0,0,1-1.651,4.546,6.583,6.583,0,0,1-4.92,1.707h-2.72v6.773H209.31V28.13Zm-2.343,8.886h1.592a3.4,3.4,0,0,0,2.4-.723,2.689,2.689,0,0,0,.723-1.91,2.551,2.551,0,0,0-.723-1.882,3.47,3.47,0,0,0-2.489-.723h-1.5Z" transform="translate(-150.435 -20.217)" fill="#fff"/>
    <path id="Path_414307" data-name="Path 414307" d="M265.563,22.68a2.408,2.408,0,1,1-1.727.7A2.43,2.43,0,0,1,265.563,22.68Zm2.082,7.929V43.52h-4.166V30.609Z" transform="translate(-189.116 -16.3)" fill="#fff"/>
    <path id="Path_414308" data-name="Path 414308" d="M292.489,56.746l-5.122-5.876h5.325l2.4,2.982,2.4-2.982h5.325L297.7,56.746l6.309,7.032h-5.384l-3.53-4.152-3.533,4.155H286.18Z" transform="translate(-205.682 -36.561)" fill="#fff"/>
    <path id="Path_414309" data-name="Path 414309" d="M357.79,22.68a2.43,2.43,0,1,1-2.43,2.43,2.405,2.405,0,0,1,2.43-2.43Zm2.084,7.929V43.52H355.7V30.609Z" transform="translate(-255.403 -16.3)" fill="#fff"/>
    <path id="Path_414310" data-name="Path 414310" d="M389.914,53.086a4.782,4.782,0,0,0-2.276-.731,1.758,1.758,0,0,0-1.187.377.883.883,0,0,0-.262.579.672.672,0,0,0,.405.577,7.525,7.525,0,0,0,1.246.436l1.1.346a5.511,5.511,0,0,1,2.141,1.125,3.069,3.069,0,0,1,1.013,2.458,4.683,4.683,0,0,1-1.33,3.375,5.575,5.575,0,0,1-4.2,1.477,7.679,7.679,0,0,1-5.3-1.851l1.764-2.813a7.074,7.074,0,0,0,1.406.956,3.893,3.893,0,0,0,1.736.405,2.387,2.387,0,0,0,1.3-.281,1.1,1.1,0,0,0,.436-.844.844.844,0,0,0-.464-.754,5.4,5.4,0,0,0-1.274-.461l-1.041-.321a5.114,5.114,0,0,1-2.084-1.187,3.181,3.181,0,0,1-.928-2.343,3.994,3.994,0,0,1,1.26-2.945,5.688,5.688,0,0,1,3.907-1.3,8.157,8.157,0,0,1,4.284,1.1Z" transform="translate(-274.025 -35.477)" fill="#fff"/>
  </g>
</svg>
